<?xml version="1.0" encoding="UTF-8" standalone="no"?>
<!-- Created with Inkscape (http://www.inkscape.org/) -->

<svg
   width="177mm"
   height="74mm"
   viewBox="0 0 177 74"
   version="1.1"
   id="svg5"
   xml:space="preserve"
   inkscape:version="1.2.1 (9c6d41e, 2022-07-14)"
   sodipodi:docname="tex-logo.svg"
   xmlns:inkscape="http://www.inkscape.org/namespaces/inkscape"
   xmlns:sodipodi="http://sodipodi.sourceforge.net/DTD/sodipodi-0.dtd"
   xmlns="http://www.w3.org/2000/svg"
   xmlns:svg="http://www.w3.org/2000/svg"><sodipodi:namedview
     id="namedview7"
     pagecolor="#ffffff"
     bordercolor="#000000"
     borderopacity="0.25"
     inkscape:showpageshadow="2"
     inkscape:pageopacity="0.0"
     inkscape:pagecheckerboard="0"
     inkscape:deskcolor="#d1d1d1"
     inkscape:document-units="mm"
     showgrid="false"
     inkscape:zoom="1.2622694"
     inkscape:cx="386.20915"
     inkscape:cy="268.96001"
     inkscape:window-width="1470"
     inkscape:window-height="847"
     inkscape:window-x="0"
     inkscape:window-y="37"
     inkscape:window-maximized="1"
     inkscape:current-layer="layer2" /><defs
     id="defs2"><rect
       x="53.021679"
       y="477.1951"
       width="712.39386"
       height="275.98465"
       id="rect1189" /></defs><g
     inkscape:groupmode="layer"
     id="layer2"
     inkscape:label="Layer 2"><path
       id="path989"
       style="opacity:1;fill:#aa322c;fill-opacity:1;stroke:#000000;stroke-width:0"
       d="M 73.457809,2.4688795 C 49.526913,2.6261712 17.930326,5.1435182 7.2104158,7.2891888 3.4152792,8.0488139 12.503187,12.657964 17.809805,11.880455 49.649207,9.4720193 78.022158,5.9149982 108.19616,11.331541 c 9.5629,2.505752 16.65166,3.794708 25.21881,15.802506 6.65299,11.388424 8.99137,24.947744 17.83854,34.330699 4.03861,4.283192 9.27959,8.987841 15.16621,9.049376 2.07445,0.02169 5.37871,-1.002256 5.41007,-3.076579 0.0342,-2.262149 -2.36255,-2.28711 -5.79581,-3.531996 C 147.73747,57.271312 147.57162,26.655944 132.06045,14.623856 119.95997,5.2726277 104.03528,3.8157736 89.296424,2.7617612 84.022067,2.4846585 78.738506,2.4249645 73.457809,2.4688795 Z"
       sodipodi:nodetypes="cscccaaasccc" /><path
       id="path1087"
       style="opacity:1;fill:#aa322c;fill-opacity:1;stroke:#000000;stroke-width:0"
       d="m 83.508587,4.5450503 c 1.82523,13.0123847 2.963607,27.6340057 2.51258,39.3238357 -0.67578,5.971783 0.125823,16.3235 -5.629764,20.404676 -3.191704,2.263176 -9.178374,-3.780083 -11.710864,-0.797562 -1.209456,1.42438 -0.388668,4.216518 1.282581,5.457083 6.705828,4.798686 14.810831,2.591606 19.113114,-3.44047 3.550199,-4.977607 3.616507,-11.823852 4.196637,-17.855326 0.60008,-15.228146 1.82712,-28.569305 -1.33002,-42.0999513 C 90.574524,3.9935526 84.721937,3.1406569 83.508587,4.5450503 Z"
       sodipodi:nodetypes="ccaacsccc" /><path
       id="path1089"
       style="opacity:1;fill:#aa322c;fill-opacity:1;stroke:#000000;stroke-width:0"
       d="m 153.64228,13.469268 c -11.87069,13.589094 -18.89456,57.23775 -40.35599,48.156406 -4.13294,-2.018068 -6.53789,-10.1265 -4.27841,-10.081349 23.50585,5.812162 25.08031,-22.265466 6.54113,-22.275399 -5.07029,0.0621 -11.38854,1.679354 -13.88945,6.733053 -4.373073,8.836866 -0.76665,26.400152 6.5349,31.541644 5.1011,3.373284 12.8282,3.772765 18.31535,1.072496 18.93067,-9.315929 20.71765,-37.386053 35.61834,-52.323466 3.04607,-3.053572 7.65965,-4.880888 9.61991,-7.8367341 2.18601,-3.296266 -0.0122,-5.7897347 -5.74701,-5.2738365 -5.7348,0.5158982 -8.39608,5.7508485 -12.35877,10.2871856 z m -33.10071,26.878589 c 0.76693,11.079913 -16.86924,4.372985 -11.60242,-1.308204 5.26682,-5.681189 11.30758,-2.951356 11.60242,1.308204 z"
       sodipodi:nodetypes="scccscasscsszs" /><path
       d="m 4.4051182,25.006774 h 9.5315888 q 3.224179,0 4.915552,0.493317 2.272782,0.669502 3.89368,2.378493 1.620899,1.708991 2.466585,4.193194 0.845687,2.466585 0.845687,6.095989 0,3.188942 -0.792831,5.49696 -0.969016,2.818955 -2.766099,4.563183 -1.356622,1.321384 -3.664641,2.06136 -1.726609,0.546172 -4.616037,0.546172 H 4.4051182 Z m 5.2150654,4.369379 v 17.107529 h 3.8936804 q 2.18469,0 3.153705,-0.246659 1.26853,-0.317132 2.096597,-1.074726 0.845687,-0.757594 1.374241,-2.484204 0.528554,-1.744227 0.528554,-4.739366 0,-2.995139 -0.528554,-4.59842 -0.528554,-1.60328 -1.479951,-2.501821 -0.951397,-0.898542 -2.41373,-1.215674 -1.092345,-0.246659 -4.281287,-0.246659 z"
       style="font-weight:bold;font-size:64px;font-family:Arial;-inkscape-font-specification:'Arial Bold';white-space:pre;fill:#aa322c;stroke:#000000;stroke-width:0;fill-opacity:1"
       id="path1613" /><path
       d="m 34.145083,37.833016 -4.492708,-0.81045 q 0.757594,-2.713243 2.607533,-4.017009 1.849938,-1.303767 5.49696,-1.303767 3.312272,0 4.93317,0.792831 1.620899,0.775213 2.272782,1.990887 0.669502,1.198055 0.669502,4.422234 l -0.05283,5.778856 q 0,2.466585 0.22904,3.647022 0.246658,1.162819 0.898541,2.501822 h -4.89793 Q 41.61534,50.342125 41.333445,49.37311 41.210116,48.932648 41.15726,48.7917 q -1.268529,1.233293 -2.713243,1.849939 -1.444714,0.616646 -3.083231,0.616646 -2.889429,0 -4.563183,-1.568043 -1.656135,-1.568043 -1.656135,-3.964154 0,-1.585662 0.757594,-2.818955 0.757594,-1.25091 2.114215,-1.902794 1.374241,-0.669501 3.946536,-1.162818 3.470838,-0.651883 4.809841,-1.215674 V 38.13253 q 0,-1.427096 -0.704739,-2.026124 -0.704738,-0.616646 -2.660388,-0.616646 -1.321384,0 -2.06136,0.528554 -0.739975,0.510935 -1.198056,1.814702 z m 6.624543,4.01701 q -0.951397,0.317132 -3.012758,0.757594 -2.06136,0.440461 -2.695625,0.863304 -0.969015,0.68712 -0.969015,1.744228 0,1.03949 0.775212,1.797084 0.775213,0.757594 1.973268,0.757594 1.339004,0 2.554678,-0.880924 0.898541,-0.669501 1.180437,-1.638517 0.193803,-0.634265 0.193803,-2.413729 z"
       style="font-weight:bold;font-size:64px;font-family:Arial;-inkscape-font-specification:'Arial Bold';white-space:pre;fill:#aa322c;stroke:#000000;stroke-width:0;fill-opacity:1"
       id="path1615" /><path
       d="M 55.252003,50.835442 H 50.301215 V 32.124633 h 4.598419 v 2.660389 q 1.180437,-1.885176 2.114216,-2.484204 0.951397,-0.599028 2.149452,-0.599028 1.691373,0 3.259416,0.933779 l -1.532806,4.316524 q -1.250911,-0.81045 -2.325638,-0.81045 -1.039489,0 -1.761846,0.58141 -0.722357,0.56379 -1.1452,2.06136 -0.405225,1.497569 -0.405225,6.272173 z"
       style="font-weight:bold;font-size:64px;font-family:Arial;-inkscape-font-specification:'Arial Bold';white-space:pre;fill:#aa322c;stroke:#000000;stroke-width:0;fill-opacity:1"
       id="path1617" /><path
       d="m 73.134744,32.124633 v 3.946536 h -3.382745 v 7.540703 q 0,2.2904 0.08809,2.678007 0.105711,0.369987 0.440462,0.616646 0.352369,0.246658 0.845686,0.246658 0.68712,0 1.990887,-0.475698 l 0.422843,3.840825 q -1.72661,0.739975 -3.911299,0.739975 -1.339003,0 -2.41373,-0.440461 -1.074726,-0.45808 -1.585661,-1.162819 Q 65.13596,48.932648 64.942156,47.716974 64.78359,46.853669 64.78359,44.228518 v -8.157349 h -2.27278 v -3.946536 h 2.272782 v -3.717495 l 4.968407,-2.889429 v 6.606924 z"
       style="font-weight:bold;font-size:64px;font-family:Arial;-inkscape-font-specification:'Arial Bold';white-space:pre;fill:#aa322c;stroke:#000000;stroke-width:0;fill-opacity:1"
       id="path1619" /></g></svg>
