<?xml version="1.0" encoding="UTF-8" standalone="no"?>
<!-- Created with Inkscape (http://www.inkscape.org/) -->

<svg
   width="177mm"
   height="74mm"
   viewBox="0 0 177 74"
   version="1.1"
   id="svg5"
   xml:space="preserve"
   inkscape:version="1.2.1 (9c6d41e, 2022-07-14)"
   sodipodi:docname="tex-logo.svg"
   xmlns:inkscape="http://www.inkscape.org/namespaces/inkscape"
   xmlns:sodipodi="http://sodipodi.sourceforge.net/DTD/sodipodi-0.dtd"
   xmlns:xlink="http://www.w3.org/1999/xlink"
   xmlns="http://www.w3.org/2000/svg"
   xmlns:svg="http://www.w3.org/2000/svg"><sodipodi:namedview
     id="namedview7"
     pagecolor="#ffffff"
     bordercolor="#000000"
     borderopacity="0.25"
     inkscape:showpageshadow="2"
     inkscape:pageopacity="0.0"
     inkscape:pagecheckerboard="0"
     inkscape:deskcolor="#d1d1d1"
     inkscape:document-units="mm"
     showgrid="false"
     inkscape:zoom="0.78491274"
     inkscape:cx="207.6664"
     inkscape:cy="107.65528"
     inkscape:window-width="1470"
     inkscape:window-height="847"
     inkscape:window-x="0"
     inkscape:window-y="37"
     inkscape:window-maximized="1"
     inkscape:current-layer="layer2" /><defs
     id="defs2"><rect
       x="53.021679"
       y="477.1951"
       width="712.39386"
       height="275.98465"
       id="rect1189" /></defs><g
     inkscape:label="background"
     inkscape:groupmode="layer"
     id="layer1"
     sodipodi:insensitive="true"
     style="display:none"><image
       width="207.46094"
       height="120.11167"
       preserveAspectRatio="none"
       xlink:href="tex-logo.png"
       id="image140"
       x="0.67769295"
       y="8.377491"
       style="opacity:0.182371" /></g><g
     inkscape:groupmode="layer"
     id="layer2"
     inkscape:label="Layer 2"><path
       id="path989"
       style="opacity:1;fill:#aa322c;stroke:#000000;stroke-width:0;fill-opacity:1"
       d="M 73.457809,2.4688795 C 49.526913,2.6261712 25.783573,5.9995644 1.9187491,7.2891888 0.81123143,15.877354 12.169452,13.492301 17.47607,12.714792 c 31.005065,-2.575303 60.879823,-8.3016007 90.72009,-1.383251 9.5629,2.505752 16.65166,3.794708 25.21881,15.802506 6.65299,11.388424 10.0855,23.250961 16.25104,34.859866 3.21797,6.432003 9.58294,10.691918 16.75371,8.520209 8.0527,-0.674394 7.2454,-8.634578 -0.38574,-6.608575 -7.9926,0.436076 -11.0257,-7.983017 -14.06364,-14.224019 C 146.58828,37.26611 143.37911,23.480329 132.06045,14.623856 119.95997,5.2726277 104.03528,3.8157736 89.296424,2.7617612 84.022067,2.4846585 78.738506,2.4249645 73.457809,2.4688795 Z"
       sodipodi:nodetypes="cccccccccccc" /><path
       id="path1087"
       style="opacity:1;fill:#aa322c;stroke:#000000;stroke-width:0;fill-opacity:1"
       d="m 83.508587,4.5450503 c 1.82523,13.0123847 2.963607,27.6340057 2.51258,39.3238357 -0.67578,5.971783 -1.08265,16.947317 -5.629764,20.404676 C 76.409775,65.893829 70.142165,57.87409 68.680539,63.476 c -0.689658,1.854894 -0.388668,4.216518 1.282581,5.457083 6.705828,4.798686 16.912064,1.176722 19.113114,-3.44047 2.34545,-5.66625 3.616507,-11.823852 4.196637,-17.855326 0.60008,-15.228146 1.82712,-28.569305 -1.33002,-42.0999513 C 90.574524,3.9935526 84.721937,3.1406569 83.508587,4.5450503 Z"
       sodipodi:nodetypes="ccccccccc" /><path
       id="path1089"
       style="opacity:1;fill:#aa322c;stroke:#000000;stroke-width:0;fill-opacity:1"
       d="m 167.20192,3.3927069 c -6.93567,0.3052737 -11.81203,5.9951657 -15.67631,11.1348951 -9.20638,12.682428 -13.47638,29.050182 -22.91349,41.574212 -2.84803,3.483032 -8.84419,7.480682 -13.20916,5.52386 -4.13294,-2.018068 -7.06706,-8.009833 -4.80758,-7.964682 11.98697,0.91915 20.60469,-10.733187 16.29691,-18.483224 -1.89323,-3.228772 -6.57108,-5.014218 -10.45414,-5.15739 -5.3108,-0.195814 -11.64273,1.690994 -14.77859,5.981601 -3.142391,4.299554 -2.232304,10.70296 -1.21434,15.930251 1.11052,5.702505 2.90333,12.406864 7.74924,15.611393 5.1011,3.373284 12.74784,3.602936 18.31535,1.072496 8.39262,-3.814461 12.69672,-13.853587 16.93745,-21.863193 5.70113,-10.996677 10.01687,-24.466581 19.21006,-33.106107 2.92039,-2.826279 9.12278,0.564025 10.14907,-4.6617334 1.57058,-3.6300579 -1.07054,-6.3189014 -5.16341,-5.6076007 l -0.44109,0.01522 z M 120.54157,40.347857 c -1.46711,11.079913 -18.62596,5.620472 -11.60242,-1.308204 3.4917,-4.413856 12.16289,-2.924603 11.60242,1.308204 z"
       sodipodi:nodetypes="ccccccaaaaaccccccscs" /><path
       d="m 4.4051182,25.006774 h 9.5315888 q 3.224179,0 4.915552,0.493317 2.272782,0.669502 3.89368,2.378493 1.620899,1.708991 2.466585,4.193194 0.845687,2.466585 0.845687,6.095989 0,3.188942 -0.792831,5.49696 -0.969016,2.818955 -2.766099,4.563183 -1.356622,1.321384 -3.664641,2.06136 -1.726609,0.546172 -4.616037,0.546172 H 4.4051182 Z m 5.2150654,4.369379 v 17.107529 h 3.8936804 q 2.18469,0 3.153705,-0.246659 1.26853,-0.317132 2.096597,-1.074726 0.845687,-0.757594 1.374241,-2.484204 0.528554,-1.744227 0.528554,-4.739366 0,-2.995139 -0.528554,-4.59842 -0.528554,-1.60328 -1.479951,-2.501821 -0.951397,-0.898542 -2.41373,-1.215674 -1.092345,-0.246659 -4.281287,-0.246659 z"
       style="font-weight:bold;font-size:64px;font-family:Arial;-inkscape-font-specification:'Arial Bold';white-space:pre;fill:#aa322c;stroke:#000000;stroke-width:0;fill-opacity:1"
       id="path1613" /><path
       d="m 34.145083,37.833016 -4.492708,-0.81045 q 0.757594,-2.713243 2.607533,-4.017009 1.849938,-1.303767 5.49696,-1.303767 3.312272,0 4.93317,0.792831 1.620899,0.775213 2.272782,1.990887 0.669502,1.198055 0.669502,4.422234 l -0.05283,5.778856 q 0,2.466585 0.22904,3.647022 0.246658,1.162819 0.898541,2.501822 h -4.89793 Q 41.61534,50.342125 41.333445,49.37311 41.210116,48.932648 41.15726,48.7917 q -1.268529,1.233293 -2.713243,1.849939 -1.444714,0.616646 -3.083231,0.616646 -2.889429,0 -4.563183,-1.568043 -1.656135,-1.568043 -1.656135,-3.964154 0,-1.585662 0.757594,-2.818955 0.757594,-1.25091 2.114215,-1.902794 1.374241,-0.669501 3.946536,-1.162818 3.470838,-0.651883 4.809841,-1.215674 V 38.13253 q 0,-1.427096 -0.704739,-2.026124 -0.704738,-0.616646 -2.660388,-0.616646 -1.321384,0 -2.06136,0.528554 -0.739975,0.510935 -1.198056,1.814702 z m 6.624543,4.01701 q -0.951397,0.317132 -3.012758,0.757594 -2.06136,0.440461 -2.695625,0.863304 -0.969015,0.68712 -0.969015,1.744228 0,1.03949 0.775212,1.797084 0.775213,0.757594 1.973268,0.757594 1.339004,0 2.554678,-0.880924 0.898541,-0.669501 1.180437,-1.638517 0.193803,-0.634265 0.193803,-2.413729 z"
       style="font-weight:bold;font-size:64px;font-family:Arial;-inkscape-font-specification:'Arial Bold';white-space:pre;fill:#aa322c;stroke:#000000;stroke-width:0;fill-opacity:1"
       id="path1615" /><path
       d="M 55.252003,50.835442 H 50.301215 V 32.124633 h 4.598419 v 2.660389 q 1.180437,-1.885176 2.114216,-2.484204 0.951397,-0.599028 2.149452,-0.599028 1.691373,0 3.259416,0.933779 l -1.532806,4.316524 q -1.250911,-0.81045 -2.325638,-0.81045 -1.039489,0 -1.761846,0.58141 -0.722357,0.56379 -1.1452,2.06136 -0.405225,1.497569 -0.405225,6.272173 z"
       style="font-weight:bold;font-size:64px;font-family:Arial;-inkscape-font-specification:'Arial Bold';white-space:pre;fill:#aa322c;stroke:#000000;stroke-width:0;fill-opacity:1"
       id="path1617" /><path
       d="m 73.134744,32.124633 v 3.946536 h -3.382745 v 7.540703 q 0,2.2904 0.08809,2.678007 0.105711,0.369987 0.440462,0.616646 0.352369,0.246658 0.845686,0.246658 0.68712,0 1.990887,-0.475698 l 0.422843,3.840825 q -1.72661,0.739975 -3.911299,0.739975 -1.339003,0 -2.41373,-0.440461 -1.074726,-0.45808 -1.585661,-1.162819 Q 65.13596,48.932648 64.942156,47.716974 64.78359,46.853669 64.78359,44.228518 v -8.157349 h -2.27278 v -3.946536 h 2.272782 v -3.717495 l 4.968407,-2.889429 v 6.606924 z"
       style="font-weight:bold;font-size:64px;font-family:Arial;-inkscape-font-specification:'Arial Bold';white-space:pre;fill:#aa322c;stroke:#000000;stroke-width:0;fill-opacity:1"
       id="path1619" /></g></svg>
