<?xml version="1.0" encoding="UTF-8" standalone="no"?>
<!-- Created with Inkscape (http://www.inkscape.org/) -->

<svg
   width="183mm"
   height="74mm"
   viewBox="0 0 183 74"
   version="1.1"
   id="svg5"
   xml:space="preserve"
   inkscape:version="1.2.1 (9c6d41e, 2022-07-14)"
   sodipodi:docname="tex-logo.svg"
   xmlns:inkscape="http://www.inkscape.org/namespaces/inkscape"
   xmlns:sodipodi="http://sodipodi.sourceforge.net/DTD/sodipodi-0.dtd"
   xmlns="http://www.w3.org/2000/svg"
   xmlns:svg="http://www.w3.org/2000/svg"><sodipodi:namedview
     id="namedview7"
     pagecolor="#ffffff"
     bordercolor="#000000"
     borderopacity="0.25"
     inkscape:showpageshadow="2"
     inkscape:pageopacity="0.0"
     inkscape:pagecheckerboard="0"
     inkscape:deskcolor="#d1d1d1"
     inkscape:document-units="mm"
     showgrid="false"
     inkscape:zoom="1.1569693"
     inkscape:cx="340.54491"
     inkscape:cy="270.53441"
     inkscape:window-width="1372"
     inkscape:window-height="1342"
     inkscape:window-x="0"
     inkscape:window-y="25"
     inkscape:window-maximized="0"
     inkscape:current-layer="layer2" /><defs
     id="defs2"><rect
       x="53.021679"
       y="477.1951"
       width="712.39386"
       height="275.98465"
       id="rect1189" /></defs><g
     inkscape:groupmode="layer"
     id="layer2"
     inkscape:label="Layer 2"><path
       id="path989"
       style="opacity:1;fill:#aa322c;fill-opacity:1;stroke:#000000;stroke-width:0"
       d="M 79.278646,2.9980462 C 55.34775,3.1553379 22.899091,4.8921625 15.205632,9.3404218 12.755871,10.756842 18.643443,12.397433 24.117438,12.044525 55.98165,9.9902415 83.842995,6.4441649 114.01703,11.860708 c 9.5629,2.505752 16.65166,3.794708 25.21881,15.802506 6.65299,11.388424 8.99137,24.947744 17.83854,34.330699 4.03861,4.283192 9.27959,8.987841 15.16621,9.049376 2.07445,0.02169 5.37871,-1.002256 5.41007,-3.076579 0.0342,-2.262149 -2.32324,-2.401394 -5.79581,-3.531996 C 154.4521,58.768718 153.39249,27.185111 137.88132,15.153023 125.78084,5.8017944 109.85615,4.3449403 95.117261,3.2909279 89.842904,3.0138252 84.559343,2.9541312 79.278646,2.9980462 Z"
       sodipodi:nodetypes="cssccaaasccc" /><path
       id="path1087"
       style="opacity:1;fill:#aa322c;fill-opacity:1;stroke:#000000;stroke-width:0"
       d="m 89.329424,4.9085401 c 1.82523,12.8394659 2.43444,27.2667839 1.983413,38.8012699 -0.67578,5.892426 0.35137,15.535948 -5.100597,19.611388 -3.112349,2.326536 -9.251295,-3.257148 -11.710864,-0.264828 -1.177042,1.431994 -0.388668,4.160486 1.282581,5.384565 6.705828,4.734917 14.810831,3.079302 19.113114,-2.872615 3.550198,-4.911461 3.616508,-12.188863 4.196635,-18.140186 C 99.693783,32.402351 100.92083,19.23848 97.763685,5.8876393 96.395361,4.3643712 90.542774,3.5228094 89.329424,4.9085401 Z"
       sodipodi:nodetypes="ccaacsccc" /><path
       id="path1089"
       style="opacity:1;fill:#aa322c;fill-opacity:1;stroke:#000000;stroke-width:0"
       d="m 158.93398,13.998435 c -12.69918,16.107808 -19.45797,55.865928 -39.29765,48.156406 -4.13294,-2.018068 -7.06706,-10.1265 -4.80758,-10.081349 23.3356,7.961502 24.40218,-22.637865 5.863,-22.647798 -5.93218,-0.129432 -10.72924,2.042478 -13.21132,7.105452 -4.14965,8.464467 -1.28801,25.506393 6.5349,31.541644 5.1011,3.373284 12.8282,3.772765 18.31535,1.072496 18.93067,-9.315929 20.71765,-37.386053 35.61834,-52.323466 3.04607,-3.053572 7.65965,-4.880888 9.61991,-7.8367344 2.18601,-3.296266 -0.0122,-5.7897347 -5.74701,-5.2738365 -4.09624,0.8882977 -7.34238,3.2531257 -12.88794,10.2871859 z m -32.57154,26.878589 c 0.76693,11.079913 -15.45412,5.117784 -11.60242,-1.308204 3.8517,-6.425988 11.30758,-2.951356 11.60242,1.308204 z"
       sodipodi:nodetypes="scccscasscsszs" /><g
       transform="matrix(0.04153976,0,0,-0.04153976,2.7724342,43.001882)"
       id="g3280"
       style="fill:#aa322c;fill-opacity:1"><g
         fill="#000000"
         stroke-width="0"
         transform="translate(0,-210)"
         data-token="D"
         id="g3266"
         style="fill:#aa322c;fill-opacity:1"><path
           id="use3264"
           d="m 337.19609,628 c 0,4.66667 -19,7.66667 -57,9 -15.33333,0 -25.33333,0.33333 -30,1 -4.66667,0.66667 -7,3.66667 -7,9 0,5.33333 1.33333,12 4,20 2.66667,8 5,13 7,15 1.33333,0.66667 67.66667,1 199,1 111.33333,-0.66667 173.66667,-1 187,-1 13.33333,0 26.66667,-2 40,-6 48,-11.33333 88.66667,-37.66667 122,-79 33.33333,-41.33333 50.33333,-96.66667 51,-166 0,-104 -35.66667,-197.33333 -107,-280 -71.33333,-82.666667 -155.33333,-132 -252,-148 l -14,-2 -194,-1 h -111 -53 c -16,0 -26.333334,0.66666667 -31.000001,2 -4.666667,1.3333333 -7.333333,4.3333333 -8,9 0,1.333333 1,6 3,14 2.666667,10.666667 5.333333,16.666667 8,18 2.666667,1.333333 10.333331,2.333333 23.000001,3 18,0 38,1 60,3 9.33333,2 15.66667,6 19,12 2,2.666667 26,95.33333 72,278 46,182.66667 69,279 69,289 z m 416,-159 c 0,25.33333 -3.66667,48 -11,68 -7.33333,20 -16,35.66667 -26,47 -10,11.33333 -22.33333,21 -37,29 -14.66667,8 -27.66667,13.33333 -39,16 -11.33333,2.66667 -23,5 -35,7 h -14 -29 c -11.33333,0 -22.33333,0.33333 -33,1 h -43 c -29.33333,0 -46,-3.33333 -50,-10 -1.33333,-2.66667 -25.66667,-98.66667 -73,-288 -47.33333,-189.33333 -71,-285 -71,-287 0,-2.666667 3.66667,-4 11,-4 7.33333,0 33,-0.333333 77,-1 h 19 c 9.33333,0 17.33333,-0.333333 24,-1 84,0 153.33333,27.333333 208,82 24,24 43.66667,52 59,84 15.33333,32 29.66667,74.33333 43,127 13.33333,52.66667 20,96 20,130 z"
           style="fill:#aa322c;fill-opacity:1"
           sodipodi:nodetypes="scsssccscscsccccsscsscccsssssssccscscssscscssss" /></g><g
         fill="#000000"
         stroke-width="0"
         transform="translate(800,-210)"
         data-token="a"
         id="g3270"
         style="fill:#aa322c;fill-opacity:1"><path
           id="use3268"
           style="fill:#aa322c;fill-opacity:1"
           d="m 1028.2224,626.02196 c -6,0 -11.9902,-0.67647 -17.9902,-2.0098 -6,-1.33333 -10.68629,-4.35296 -14.01959,-9.01961 -3.3333,-4.66666 -6.6667,-8.67648 -10,-12.00981 -3.3333,-3.33333 -5.9902,-8.96079 -7.9902,-16.96079 -2,-7.99998 -4.0294,-14.66668 -6.0294,-20 -2,-5.33333 -4.2941,-14.02944 -6.9608,-26.02942 -2.6667,-11.99998 -5.0098,-21.63728 -7.0098,-28.97059 l -19.01959,-80.00002 -89.01964,4.31373 c -69.20985,3.14326 -85.49447,-10.59769 -112.99022,-54.65688 -7.32286,24.30826 -28.05049,37.30236 -45.00001,47.99021 -14.66663,7.99998 -31.79261,13.93882 -51.02942,12.00981 -40.29901,-4.04107 -61.41314,-31.55533 -78.9706,-61.02943 -18.30105,-35.39511 -27.27706,-71.88624 -33.59382,-96.3483 -11.26047,-43.711 -23.37704,-116.5057 -37.74555,-146.30434 -9.36006,-23.16608 -60.29273,-106.394121 -88.85675,-110.974883 -24.08597,-0.987515 -30.36499,25.73095 -27.7451,44.852951 17.93626,94.767872 45.46062,187.399152 66.61766,281.470642 1.88933,19.16218 16.58342,43.04386 0.4902,59.60786 -22.32198,21.17312 -60.44095,6.47724 -71.37257,-19.95098 -16.6503,21.11078 -38.72597,39.28313 -65.24511,45.93138 C 250.85237,448.76766 194.8855,426.92895 153.27127,393.08074 84.274974,334.9632 32.50426,249.22599 32.97713,157.00226 32.97873,145.04014 33.566421,133.04971 34.986935,121.16892 38.871971,78.318402 59.070283,35.384639 96.800673,12.492423 182.44363,-25.203269 232.28468,-17.299065 300.67326,49.355176 c 10.03595,-34.460171 45.72324,-52.7544883 79.951,-58.8235421 71.1143,-12.6095459 102.59103,50.7865991 120.6863,74.8529571 23.94529,31.846772 52.95037,138.087979 67.41637,204.676349 14.46599,66.58837 22.43661,86.9512 32.43659,105.61783 9.99998,18.66663 22.02945,27.9902 36.02942,27.9902 17.33329,0 25.9804,-13.01967 25.9804,-39.01961 0,-11.99998 -13.33339,-71.01006 -40.00001,-177.00984 C 596.50672,81.63973 583.17332,24.345347 583.17332,15.678698 c -0.66666,-2.666661 0.01,-6.0000101 2.00981,-10.0000021 1.99999,-3.999992 5.64707,-8.0098144 10.98039,-12.0098064 5.33332,-3.9999915 12.36277,-6.0294135 21.02942,-6.0294135 19.99996,0 34.32355,9.0098456 42.9902,27.00981 3.33333,5.999988 16.35299,55.686499 39.01962,149.019634 19.33329,77.33319 30.63728,121.65692 33.97059,132.99023 38.79345,91.10488 74.08081,101.25454 128.87258,97.6961 51.55955,-3.80196 64.45506,-9.57787 64.68573,-12.29526 -1.12805,-2.28142 -12.18574,-47.03829 -35.51906,-141.03811 L 856.21259,101.02185 V 82.982634 c 0,-12.666642 0.67648,-21.627468 2.00981,-26.96079 7.99998,-24.666618 20.97063,-42.009835 38.97059,-52.0098151 17.99993,-9.99998 37.00983,-15.0000029 57.00982,-15.0000029 20.6666,0 41.0295,5.6764966 61.02939,17.0098072 20,11.3333108 36.9804,25.2941598 50.9804,41.9607928 14,16.666634 25.353,32.343177 34.0196,47.009814 8.6667,14.66664 14.6569,27.32356 17.9902,37.9902 2,6 2.9902,10.00981 2.9902,12.00981 0,5.33332 -5,7.9902 -15,7.9902 h -4.0196 c -8,-0.66667 -13,-1.29412 -15,-1.96079 -2,-0.66666 -3.6667,-3.00982 -5,-7.0098 -13.3333,-33.33327 -30.9902,-61.353006 -52.9902,-84.019627 -22,-22.666622 -44.65689,-33.970596 -67.99019,-33.970596 -17.99999,0 -27.00979,13.960849 -27.00979,41.960793 0,7.999984 13.0197,65.34339 39.01959,172.00984 l 35.98039,145.00003 h 107.0098 c 8.6667,8.66665 12.9902,20.33337 12.9902,35.00001 0,2.66665 -2.3431,6.36276 -7.0098,11.02941 h -50.9804 c -33.3332,0 -50,0.62745 -50,1.96079 l 10,37.00981 c 7.3333,25.99994 14,52.35301 20,79.01962 6,26.66662 9.0196,42.34315 9.0196,47.00982 0,5.99998 -2.3431,12.30393 -7.0098,18.97059 -4.6666,6.66665 -13,10.36275 -25,11.02941 z M 287.14385,404.01211 c 35.46889,-6.27995 60.19708,-41.77253 63.87256,-76.02943 C 336.48873,261.5494 319.75107,195.61357 303.41836,129.60029 299.83653,100.26645 276.72298,79.956158 256.26149,61.070864 229.12024,35.257358 186.74828,14.550147 150.47715,33.521839 121.9182,47.09735 116.04861,82.636387 118.76146,111.02186 c -0.40581,30.03227 7.35399,59.38614 13.38236,88.62746 12.38867,48.37855 24.79172,98.05055 50.93138,141.12748 22.31115,34.87474 59.42827,69.89906 104.06865,63.23531 z"
           sodipodi:nodetypes="csssssscccccsccccccccccccccsscsssscssscccccccscssssscsscscssscccscsccssscccccccccc" /></g><g
         fill="#000000"
         stroke-width="0"
         transform="translate(1350,-210)"
         data-token="r"
         id="g3274"
         style="fill:#aa322c;fill-opacity:1" /><g
         fill="#000000"
         stroke-width="0"
         transform="translate(1800,-210)"
         data-token="t"
         id="g3278"
         style="fill:#aa322c;fill-opacity:1" /></g></g></svg>
