<svg width="100" height="132" xmlns="http://www.w3.org/2000/svg" role="img" focusable="false" viewBox="0 -1648 2495 3297" xmlns:xlink="http://www.w3.org/1999/xlink">
  <defs>
    <path id="TEX-LO-2211" d="M60 948Q63 950 665 950H1267L1325 815Q1384 677 1388 669H1348L1341 683Q1320 724 1285 761Q1235 809 1174 838T1033 881T882 898T699 902H574H543H251L259 891Q722 258 724 252Q725 250 724 246Q721 243 460 -56L196 -356Q196 -357 407 -357Q459 -357 548 -357T676 -358Q812 -358 896 -353T1063 -332T1204 -283T1307 -196Q1328 -170 1348 -124H1388Q1388 -125 1381 -145T1356 -210T1325 -294L1267 -449L666 -450Q64 -450 61 -448Q55 -446 55 -439Q55 -437 57 -433L590 177Q590 178 557 222T452 366T322 544L56 909L55 924Q55 945 60 948Z"></path>
    <path id="TEX-I-1D458" d="M121 647Q121 657 125 670T137 683Q138 683 209 688T282 694Q294 694 294 686Q294 679 244 477Q194 279 194 272Q213 282 223 291Q247 309 292 354T362 415Q402 442 438 442Q468 442 485 423T503 369Q503 344 496 327T477 302T456 291T438 288Q418 288 406 299T394 328Q394 353 410 369T442 390L458 393Q446 405 434 405H430Q398 402 367 380T294 316T228 255Q230 254 243 252T267 246T293 238T320 224T342 206T359 180T365 147Q365 130 360 106T354 66Q354 26 381 26Q429 26 459 145Q461 153 479 153H483Q499 153 499 144Q499 139 496 130Q455 -11 378 -11Q333 -11 305 15T277 90Q277 108 280 121T283 145Q283 167 269 183T234 206T200 217T182 220H180Q168 178 159 139T145 81T136 44T129 20T122 7T111 -2Q98 -11 83 -11Q66 -11 57 -1T48 16Q48 26 85 176T158 471L195 616Q196 629 188 632T149 637H144Q134 637 131 637T124 640T121 647Z"></path>
    <path id="TEX-N-3D" d="M56 347Q56 360 70 367H707Q722 359 722 347Q722 336 708 328L390 327H72Q56 332 56 347ZM56 153Q56 168 72 173H708Q722 163 722 153Q722 140 707 133H70Q56 140 56 153Z"></path>
    <path id="TEX-N-31" d="M213 578L200 573Q186 568 160 563T102 556H83V602H102Q149 604 189 617T245 641T273 663Q275 666 285 666Q294 666 302 660V361L303 61Q310 54 315 52T339 48T401 46H427V0H416Q395 3 257 3Q121 3 100 0H88V46H114Q136 46 152 46T177 47T193 50T201 52T207 57T213 61V578Z"></path>
    <path id="TEX-N-35" d="M164 157Q164 133 148 117T109 101H102Q148 22 224 22Q294 22 326 82Q345 115 345 210Q345 313 318 349Q292 382 260 382H254Q176 382 136 314Q132 307 129 306T114 304Q97 304 95 310Q93 314 93 485V614Q93 664 98 664Q100 666 102 666Q103 666 123 658T178 642T253 634Q324 634 389 662Q397 666 402 666Q410 666 410 648V635Q328 538 205 538Q174 538 149 544L139 546V374Q158 388 169 396T205 412T256 420Q337 420 393 355T449 201Q449 109 385 44T229 -22Q148 -22 99 32T50 154Q50 178 61 192T84 210T107 214Q132 214 148 197T164 157Z"></path>
    <path id="TEX-N-32" d="M109 429Q82 429 66 447T50 491Q50 562 103 614T235 666Q326 666 387 610T449 465Q449 422 429 383T381 315T301 241Q265 210 201 149L142 93L218 92Q375 92 385 97Q392 99 409 186V189H449V186Q448 183 436 95T421 3V0H50V19V31Q50 38 56 46T86 81Q115 113 136 137Q145 147 170 174T204 211T233 244T261 278T284 308T305 340T320 369T333 401T340 431T343 464Q343 527 309 573T212 619Q179 619 154 602T119 569T109 550Q109 549 114 549Q132 549 151 535T170 489Q170 464 154 447T109 429Z"></path>
  </defs>
  <g transform="scale(1,-1)">
    <g fill="rgb(255,0,0)" stroke-width="0" transform="translate(45.4875,-210.0000) scale(1.0000,1.0000)" data-token="\sum">
      <use xlink:href="#TEX-LO-2211"></use>
    </g>
    <g fill="rgb(255,0,0)" stroke-width="0" transform="translate(0.0000,-1360.0000) scale(0.7071,0.7071)" data-token="k">
      <use xlink:href="#TEX-I-1D458"></use>
    </g>
    <g fill="rgb(255,0,0)" stroke-width="0" transform="translate(530.3250,-1360.0000) scale(0.7071,0.7071)" data-token="=">
      <use xlink:href="#TEX-N-3D"></use>
    </g>
    <g fill="rgb(255,0,0)" stroke-width="0" transform="translate(1237.4250,-1360.0000) scale(0.7071,0.7071)" data-token="1">
      <use xlink:href="#TEX-N-31"></use>
    </g>
    <g fill="rgb(255,0,0)" stroke-width="0" transform="translate(618.7125,990.0000) scale(0.7071,0.7071)" data-token="5">
      <use xlink:href="#TEX-N-35"></use>
    </g>
    <g fill="rgb(255,0,0)" stroke-width="0" transform="translate(1792.7500,390.0000) scale(1.0000,1.0000)" data-token="1">
      <use xlink:href="#TEX-N-31"></use>
    </g>
    <g fill="rgb(255,0,0)" stroke-width="0" transform="translate(1590.9750,-965.3250) scale(1.0000,1.0000)" data-token="k">
      <use xlink:href="#TEX-I-1D458"></use>
    </g>
    <g fill="rgb(255,0,0)" stroke-width="0" transform="translate(2140.9750,-590.3250) scale(0.7071,0.7071)" data-token="2">
      <use xlink:href="#TEX-N-32"></use>
    </g>
      <rect x="1590.9750" y="30.0000" width="903.5500" height="20" fill="rgb(255,0,0)" stroke="rgb(255,0,0)" stroke-width="20" data-token="\frac"></rect>
  </g>
</svg>
